<?xml version="1.0" standalone="no"?>
<!DOCTYPE svg PUBLIC "-//W3C//DTD SVG 20010904//EN"
 "http://www.w3.org/TR/2001/REC-SVG-20010904/DTD/svg10.dtd">
<svg version="1.0" xmlns="http://www.w3.org/2000/svg"
 width="558.000000pt" height="558.000000pt" viewBox="0 0 558.000000 558.000000"
 preserveAspectRatio="xMidYMid meet">
<metadata>
Created by potrace 1.11, written by Peter Selinger 2001-2013
</metadata>
<g transform="translate(0.000000,558.000000) scale(0.100000,-0.100000)"
fill="#000000" stroke="none">
<path d="M411 3720 c-6 -4 -8 -270 -2 -290 0 -3 145 -5 321 -4 l320 1 1 -26
c0 -14 0 -396 0 -848 l1 -823 183 0 182 0 1 828 c0 455 1 836 1 848 1 20 4 21
317 20 174 -1 320 2 325 5 6 3 8 68 7 149 l-3 144 -823 0 c-453 1 -827 -1
-831 -4z"/>
<path d="M2202 3722 c-5 -1 42 -145 103 -320 127 -359 142 -404 195 -557 21
-60 62 -175 90 -255 71 -200 246 -700 277 -787 l25 -73 97 0 97 0 88 253 c49
138 132 378 186 532 54 154 142 405 196 558 53 153 100 274 104 270 7 -8 16
-32 100 -278 53 -154 241 -693 310 -890 21 -60 57 -164 80 -230 23 -66 49
-142 58 -168 l17 -48 99 3 99 3 55 155 c29 85 84 243 122 350 37 107 80 229
95 270 15 41 33 93 40 115 7 22 43 126 80 230 37 105 86 246 110 315 24 69 71
204 105 300 62 174 83 241 81 249 0 3 -50 5 -110 5 l-110 1 -42 -125 c-24 -69
-62 -181 -86 -250 -24 -69 -45 -132 -48 -140 -2 -8 -31 -94 -64 -190 -188
-548 -285 -832 -303 -887 -11 -35 -23 -63 -27 -63 -4 0 -26 55 -49 123 -22 67
-89 262 -147 432 -59 171 -111 321 -115 335 -4 14 -56 165 -115 335 -59 171
-113 333 -122 360 -8 28 -18 53 -22 57 -9 10 -164 14 -178 5 -6 -4 -13 -17
-16 -29 -2 -13 -41 -129 -87 -258 -45 -129 -118 -338 -161 -465 -283 -813
-312 -896 -319 -888 -4 4 -19 46 -34 93 -15 47 -31 94 -36 105 -5 11 -29 81
-54 155 -165 496 -434 1281 -441 1288 -5 6 -208 9 -223 4z"/>
</g>
</svg>
