<?xml version="1.0" encoding="UTF-8"?>
<svg width="32px" height="32px" viewBox="0 0 32 32" version="1.1" xmlns="http://www.w3.org/2000/svg" xmlns:xlink="http://www.w3.org/1999/xlink">
    <!-- Generator: Sketch 62 (91390) - https://sketch.com -->
    <title>dribbble_icon</title>
    <desc>Created with Sketch.</desc>
    <g id="Page-1" stroke="none" stroke-width="1" fill="none" fill-rule="evenodd">
        <g id="Group" transform="translate(-156.000000, -416.000000)" fill="#444444">
            <path d="M172,416 C180.837,416 188,423.163 188,432 C188,440.837 180.837,448 172,448 C163.163,448 156,440.837 156,432 C156,423.163 163.163,416 172,416 Z M172,424 C167.589,424 164,427.589 164,432 C164,436.411 167.589,440 172,440 C176.411,440 180,436.411 180,432 C180,427.589 176.411,424 172,424 Z M173.2114,433.119 C174.1704,435.612 174.5674,437.701 174.6694,438.301 C173.8484,438.65 172.9464,438.844 172.0004,438.844 C170.4204,438.844 168.9644,438.305 167.8054,437.401 C167.9284,437.15 169.3124,434.477 173.1664,433.134 C173.1814,433.129 173.1964,433.124 173.2114,433.119 Z M174.4905,432.803 C176.6315,432.46 178.5135,433.021 178.7465,433.095 C178.4425,434.996 177.3505,436.638 175.8175,437.675 C175.7475,437.259 175.3845,435.259 174.4905,432.803 Z M172.1927,430.8291 C172.3887,431.2121 172.5757,431.6011 172.7467,431.9891 C172.6567,432.0141 172.5667,432.0411 172.4777,432.0701 C168.9537,433.2091 167.0777,436.3141 166.9237,436.5791 C165.8317,435.3681 165.1667,433.7651 165.1667,432.0101 C165.1667,431.9401 165.1677,431.8711 165.1707,431.8021 C165.4697,431.8081 168.7807,431.8501 172.1927,430.8291 Z M177.2897,427.6895 C178.2407,428.8525 178.8177,430.3335 178.8327,431.9455 C178.6067,431.8985 176.3477,431.4405 174.0747,431.7255 C174.0267,431.6085 173.9777,431.4915 173.9267,431.3735 C173.7847,431.0405 173.6327,430.7095 173.4737,430.3835 C176.0007,429.3525 177.1457,427.8845 177.2897,427.6895 Z M169.0953,425.8263 C169.2753,426.0733 170.4963,427.7653 171.6283,429.7783 C168.819694,430.524391 166.30455,430.605559 165.529092,430.61156 L165.3113,430.6113 C165.7543,428.4903 167.1833,426.7283 169.0953,425.8263 Z M171.9997,425.177 C173.7367,425.177 175.3227,425.828 176.5297,426.899 C176.4067,427.074 175.3777,428.457 172.9487,429.367 C171.8287,427.31 170.5877,425.62 170.3987,425.367 C170.9127,425.243 171.4487,425.177 171.9997,425.177 Z" id="dribbble_icon"></path>
        </g>
    </g>
</svg>