<?xml version="1.0" encoding="UTF-8"?>
<svg width="32px" height="32px" viewBox="0 0 32 32" version="1.1" xmlns="http://www.w3.org/2000/svg" xmlns:xlink="http://www.w3.org/1999/xlink">
    <!-- Generator: Sketch 62 (91390) - https://sketch.com -->
    <title>linkedin_icon</title>
    <desc>Created with Sketch.</desc>
    <g id="Page-1" stroke="none" stroke-width="1" fill="none" fill-rule="evenodd">
        <g id="Group" transform="translate(-156.000000, -468.000000)" fill="#444444">
            <path d="M180,491.9854 L176.685,491.9854 L176.685,486.7974 C176.685,485.5604 176.663,483.9694 174.962,483.9694 C173.237,483.9694 172.974,485.3174 172.974,486.7094 L172.974,491.9854 L169.662,491.9854 L169.662,481.3174 L172.84,481.3174 L172.84,482.7764 L172.886,482.7764 C173.328,481.9374 174.41,481.0524 176.023,481.0524 C179.38,481.0524 180,483.2614 180,486.1344 L180,491.9854 Z M165.924,479.8604 C164.859,479.8604 164,478.9984 164,477.9374 C164,476.8764 164.859,476.0144 165.924,476.0144 C166.984,476.0144 167.845,476.8764 167.845,477.9374 C167.845,478.9984 166.984,479.8604 165.924,479.8604 L165.924,479.8604 Z M167.582,491.9854 L164.263,491.9854 L164.263,481.3174 L167.582,481.3174 L167.582,491.9854 Z M172,468.0004 C163.163,468.0004 156,475.1634 156,484.0004 C156,492.8364 163.163,500.0004 172,500.0004 C180.837,500.0004 188,492.8364 188,484.0004 C188,475.1634 180.837,468.0004 172,468.0004 L172,468.0004 Z" id="linkedin_icon"></path>
        </g>
    </g>
</svg>